<svg width="16" height="17" viewBox="0 0 16 17" fill="none" xmlns="http://www.w3.org/2000/svg">
<path d="M10.3333 9.52079C12.7266 9.52079 14.6667 8.92384 14.6667 8.18746C14.6667 7.45108 12.7266 6.85413 10.3333 6.85413C7.9401 6.85413 6 7.45108 6 8.18746C6 8.92384 7.9401 9.52079 10.3333 9.52079Z" stroke="#85737B"/>
<path d="M14.6667 11.1875C14.6667 11.9239 12.7266 12.5208 10.3333 12.5208C7.94007 12.5208 6 11.9239 6 11.1875" stroke="#85737B"/>
<path d="M14.6667 8.1875V14.0542C14.6667 14.8642 12.7266 15.5208 10.3333 15.5208C7.94007 15.5208 6 14.8642 6 14.0542V8.1875" stroke="#85737B"/>
<path d="M5.66668 4.85417C8.05991 4.85417 10 4.25721 10 3.52083C10 2.78445 8.05991 2.1875 5.66668 2.1875C3.27344 2.1875 1.33334 2.78445 1.33334 3.52083C1.33334 4.25721 3.27344 4.85417 5.66668 4.85417Z" stroke="#85737B"/>
<path d="M4.00001 8.18746C2.7388 8.03399 1.57995 7.63713 1.33334 6.85413M4.00001 11.5208C2.7388 11.3673 1.57995 10.9705 1.33334 10.1875" stroke="#85737B" stroke-linecap="round"/>
<path d="M4.00001 14.8541C2.7388 14.7006 1.57995 14.3038 1.33334 13.5208V3.52075" stroke="#85737B" stroke-linecap="round"/>
<path d="M10 4.85409V3.52075" stroke="#85737B" stroke-linecap="round"/>
</svg>
