<svg width="35" height="34" viewBox="0 0 35 34" fill="none" xmlns="http://www.w3.org/2000/svg">
<path d="M22.5063 11.7594C27.0713 13.9052 29.3537 14.978 29.3855 16.7935C29.4171 18.609 27.1735 19.7608 22.6862 22.0646L19.6304 23.6334C16.1843 25.4027 14.4612 26.2873 13.6147 25.6807C13.3872 25.5177 13.1979 25.3009 13.0619 25.0472C12.556 24.1038 13.5112 22.3391 15.4216 18.8096C15.8453 18.0267 16.0572 17.6353 16.0889 17.2106C16.0981 17.0874 16.0959 16.9635 16.0825 16.8407C16.036 16.4174 15.8105 16.0336 15.3597 15.266C13.3274 11.8053 12.3112 10.075 12.7838 9.11452C12.9109 8.85628 13.0924 8.63299 13.3141 8.46208C14.1389 7.82639 15.8919 8.65034 19.3977 10.2982L22.5063 11.7594Z" stroke="#141B34" stroke-width="1.5"/>
</svg>
