<svg width="16" height="17" viewBox="0 0 16 17" fill="none" xmlns="http://www.w3.org/2000/svg">
<path d="M9.66665 6.85392C9.66665 7.77439 8.92045 8.52059 7.99998 8.52059C7.07951 8.52059 6.33331 7.77439 6.33331 6.85392C6.33331 5.93345 7.07951 5.18726 7.99998 5.18726C8.92045 5.18726 9.66665 5.93345 9.66665 6.85392Z" stroke="#85737B"/>
<path d="M8.83825 12.5163C8.61338 12.7329 8.31285 12.8539 8.00011 12.8539C7.68731 12.8539 7.38678 12.7329 7.16191 12.5163C5.10285 10.5211 2.34344 8.29226 3.68912 5.05641C4.41671 3.3068 6.16327 2.18726 8.00011 2.18726C9.83691 2.18726 11.5834 3.30681 12.311 5.05641C13.655 8.28819 10.9024 10.528 8.83825 12.5163Z" stroke="#85737B"/>
<path d="M12 14.1873C12 14.9237 10.2091 15.5206 8 15.5206C5.79086 15.5206 4 14.9237 4 14.1873" stroke="#85737B" stroke-linecap="round"/>
</svg>
