<svg width="25" height="24" viewBox="0 0 25 24" fill="none" xmlns="http://www.w3.org/2000/svg">
<g clip-path="url(#clip0_164_12297)">
<g clip-path="url(#clip1_164_12297)">
<path opacity="0.5" d="M5.72126 6.25C5.5679 6.24989 5.41818 6.29679 5.2923 6.38439C5.16642 6.47199 5.07042 6.59608 5.01724 6.73993C4.96406 6.88378 4.95625 7.04047 4.99488 7.18889C5.03351 7.33731 5.1167 7.47033 5.23326 7.57L12.2333 13.57C12.5133 13.81 12.9283 13.81 13.2093 13.57L20.2093 7.57C20.3258 7.47033 20.409 7.33731 20.4476 7.18889C20.4863 7.04047 20.4785 6.88378 20.4253 6.73993C20.3721 6.59608 20.2761 6.47199 20.1502 6.38439C20.0243 6.29679 19.8746 6.24989 19.7213 6.25H5.72126Z" fill="#FF5630"/>
<path fill-rule="evenodd" clip-rule="evenodd" d="M5.15064 10.5119C5.21477 10.437 5.29301 10.3756 5.3809 10.331C5.46879 10.2865 5.5646 10.2596 5.66285 10.2521C5.76111 10.2446 5.85988 10.2565 5.95353 10.2872C6.04718 10.3179 6.13387 10.3667 6.20864 10.4309L12.7206 16.0119L19.2326 10.4309C19.3073 10.366 19.3941 10.3165 19.488 10.2853C19.5818 10.2541 19.6809 10.2418 19.7796 10.2491C19.8782 10.2564 19.9745 10.2831 20.0628 10.3277C20.1511 10.3723 20.2296 10.4339 20.294 10.5091C20.3584 10.5842 20.4072 10.6713 20.4378 10.7654C20.4684 10.8594 20.48 10.9586 20.4721 11.0572C20.4641 11.1558 20.4368 11.2519 20.3916 11.3399C20.3464 11.4278 20.2842 11.506 20.2086 11.5699L13.2086 17.5699C13.0727 17.6863 12.8996 17.7503 12.7206 17.7503C12.5416 17.7503 12.3686 17.6863 12.2326 17.5699L5.23264 11.5699C5.15782 11.5057 5.09636 11.4275 5.05179 11.3396C5.00723 11.2517 4.98041 11.1559 4.97289 11.0577C4.96537 10.9594 4.97728 10.8606 5.00795 10.767C5.03862 10.6733 5.08745 10.5866 5.15164 10.5119" fill="#FF5630"/>
</g>
</g>
<defs>
<clipPath id="clip0_164_12297">
<rect width="24" height="24" fill="white" transform="translate(0.333496)"/>
</clipPath>
<clipPath id="clip1_164_12297">
<rect width="24" height="24" fill="white" transform="translate(0.720703)"/>
</clipPath>
</defs>
</svg>
